<svg width="1200" height="630" viewBox="0 0 1200 630" fill="none" xmlns="http://www.w3.org/2000/svg">
  <defs>
    <linearGradient id="bg" x1="88" y1="62" x2="1070" y2="596" gradientUnits="userSpaceOnUse">
      <stop stop-color="#0A1523"/>
      <stop offset="0.55" stop-color="#050A12"/>
      <stop offset="1" stop-color="#0E1B29"/>
    </linearGradient>
    <linearGradient id="accent" x1="216" y1="96" x2="866" y2="508" gradientUnits="userSpaceOnUse">
      <stop stop-color="#FFD07A"/>
      <stop offset="1" stop-color="#83F2FF"/>
    </linearGradient>
    <radialGradient id="halo" cx="0" cy="0" r="1" gradientUnits="userSpaceOnUse" gradientTransform="translate(890 202) rotate(137.475) scale(352.254 239.582)">
      <stop stop-color="#83F2FF" stop-opacity="0.24"/>
      <stop offset="1" stop-color="#83F2FF" stop-opacity="0"/>
    </radialGradient>
    <radialGradient id="goldHalo" cx="0" cy="0" r="1" gradientUnits="userSpaceOnUse" gradientTransform="translate(248 128) rotate(90) scale(244)">
      <stop stop-color="#FFD07A" stop-opacity="0.22"/>
      <stop offset="1" stop-color="#FFD07A" stop-opacity="0"/>
    </radialGradient>
  </defs>
  <rect width="1200" height="630" rx="42" fill="#02050A"/>
  <rect x="20" y="20" width="1160" height="590" rx="34" fill="url(#bg)" stroke="white" stroke-opacity="0.08"/>
  <rect x="70" y="72" width="1060" height="486" rx="30" fill="url(#halo)"/>
  <rect x="70" y="72" width="1060" height="486" rx="30" fill="url(#goldHalo)"/>
  <rect x="86" y="86" width="268" height="90" rx="26" fill="white" fill-opacity="0.04" stroke="white" stroke-opacity="0.08"/>
  <rect x="104" y="104" width="58" height="58" rx="20" fill="url(#accent)"/>
  <path d="M116 118H123.5L133.5 132L143.5 118H151V152H143.5V129.5L134 143H132.8L123.5 129.5V152H116V118Z" fill="#061018"/>
  <path d="M184 126H336" stroke="#83F2FF" stroke-opacity="0.6" stroke-width="2" stroke-linecap="round"/>
  <text x="184" y="118" fill="#F4FBFF" font-family="Sora, Arial, sans-serif" font-size="18" letter-spacing="5">MH HORIZON</text>
  <text x="184" y="150" fill="#B4C7D3" font-family="Sora, Arial, sans-serif" font-size="18">Premium gateway to a universe of hubs</text>
  <text x="88" y="278" fill="#F7FBFF" font-family="Syne, Arial, sans-serif" font-size="88" font-weight="700">MH Horizon</text>
  <text x="88" y="346" fill="#E8F4FB" font-family="Sora, Arial, sans-serif" font-size="34">One cinematic frontend for every connected hub.</text>
  <text x="88" y="404" fill="#A8BCC8" font-family="Sora, Arial, sans-serif" font-size="24">Launch live destinations, spotlight future builds, and route visitors through one polished flagship experience.</text>
  <rect x="88" y="446" width="192" height="52" rx="26" fill="url(#accent)"/>
  <text x="126" y="478" fill="#051018" font-family="Sora, Arial, sans-serif" font-size="22" font-weight="700">Open Gateway</text>
  <rect x="298" y="446" width="188" height="52" rx="26" fill="white" fill-opacity="0.04" stroke="white" stroke-opacity="0.12"/>
  <text x="338" y="478" fill="#EFF7FB" font-family="Sora, Arial, sans-serif" font-size="22" font-weight="600">Explore Hubs</text>
  <g opacity="0.96">
    <ellipse cx="888" cy="378" rx="236" ry="62" stroke="#83F2FF" stroke-opacity="0.72" stroke-width="4"/>
    <ellipse cx="888" cy="334" rx="204" ry="54" stroke="#83F2FF" stroke-opacity="0.54" stroke-width="3"/>
    <ellipse cx="888" cy="292" rx="174" ry="46" stroke="#83F2FF" stroke-opacity="0.44" stroke-width="3"/>
    <ellipse cx="888" cy="252" rx="144" ry="38" stroke="#FFD07A" stroke-opacity="0.46" stroke-width="3"/>
    <ellipse cx="888" cy="216" rx="116" ry="30" stroke="#FF8D63" stroke-opacity="0.42" stroke-width="3"/>
    <circle cx="706" cy="379" r="12" fill="#83F2FF"/>
    <circle cx="1024" cy="290" r="12" fill="#83F2FF"/>
    <circle cx="770" cy="218" r="10" fill="#FFD07A"/>
    <circle cx="946" cy="184" r="9" fill="#FF8D63"/>
    <ellipse cx="888" cy="310" rx="92" ry="92" fill="#83F2FF" fill-opacity="0.08"/>
    <rect x="878" y="236" width="20" height="156" rx="10" fill="#FFD07A" fill-opacity="0.72"/>
  </g>
  <rect x="790" y="450" width="96" height="40" rx="20" fill="#78FFC7" fill-opacity="0.94"/>
  <text x="820" y="475" fill="#04110B" font-family="Sora, Arial, sans-serif" font-size="18" font-weight="700">LIVE</text>
  <rect x="902" y="450" width="150" height="40" rx="20" fill="#FFD07A" fill-opacity="0.94"/>
  <text x="926" y="475" fill="#2A1906" font-family="Sora, Arial, sans-serif" font-size="18" font-weight="700">MAINTENANCE</text>
  <rect x="790" y="504" width="262" height="40" rx="20" fill="#FF8D63" fill-opacity="0.94"/>
  <text x="822" y="529" fill="#260E07" font-family="Sora, Arial, sans-serif" font-size="18" font-weight="700">UNDER CONSTRUCTION</text>
</svg>
